Patient4_TMGait_0pt2_03_left_19_EMG.mot
version=1
nRows=16
nColumns=33
inDegrees=no
endheader
time	1LAddLong	2LGlutMax	3LGlutMed	4LIliopsoas	5LSemiMemb	6LBicFemLong	7LRecFem	8LVastMed	9LVastLat	10LGasMed	11LTibAnt	12lTibPost	13LPeroneusLong	14LSol	15LExtDigLong	16LFlexDigLong	17RAddLong	18RGlutMax	19RGlutMed	20RIliopsoas	21RSemiMemb	22RBicFemLong	23RRecFem	24RVastMed	25RVastLat	26RGasMed	27RTibAnt	28RTibPost	29RPeroneusLong	30RSol	31RExtDigLong	32RFlexDigLong
41.963	0.014343	-0.045929	0.049286	0.023041	-0.002441	0.020447	-0.024109	-0.001221	-0.005951	-0.044861	-0.002747	-0.007172	0.007629	-0.013428	-0.32425	-0.001373	-0.020599	-0.25803	-0.37445	0.12894	0.28656	0.15182	-0.14343	-0.33005	-1.0207	0.02594	0.13962	0	-0.13168	0.14084	0	-0.007172
41.964	0.012665	-0.069733	-0.083923	0.017853	-0.010986	0.014496	-0.007324	0.001984	-0.013885	-0.054169	-0.14542	-0.001068	-0.014954	-0.025177	-0.23224	0.016174	-0.032043	-0.24139	-0.38132	0.099182	0.30228	0.14145	0.010834	-0.17838	-0.81863	0.025177	0.15686	-0.069275	-0.12802	-0.10742	0.003052	-0.016785
41.965	0.011597	-0.011902	-0.14526	0.011749	-0.011749	0.011902	0.005798	0.001678	-0.001984	-0.012054	-0.27481	-0.011902	0.066071	-0.021515	-0.22079	0.009766	-0.056915	-0.14389	-0.63202	0.016937	0.10819	0.037842	-0.18707	0.26215	-0.077057	0.033722	0.030518	-0.37827	-0.44373	-0.53284	-0.001526	-0.021973
41.966	0.004578	-0.025024	-0.13123	0.005646	-0.014801	0.023041	0.014496	0.00412	-0.009766	0.046692	-0.18127	0.00473	0.055237	0.001831	-0.093079	0.020447	-0.054626	-0.18082	0.062561	-0.069427	0.21347	0.020142	-0.23941	0.052643	0.18784	0.019836	0.076294	0.033417	-0.39291	-0.65597	-0.005798	-0.015411
41.967	0.003967	-0.01297	-0.10559	0.003204	-0.02182	0.011292	0.016632	0.000916	-0.007935	0.06073	-0.071869	-0.005951	0.031433	-0.000458	-0.026703	0.016479	-0.012665	-0.12131	-0.4216	-0.046539	-0.042725	0.065765	0.090027	-0.22537	0.37567	-0.020905	0.052948	0.031586	0.10468	-0.26443	-0.002136	-0.021973
41.968	0.008087	-0.010834	-0.103	-0.01709	-0.012512	0.012054	0.003204	0.006104	0.00885	0.051117	0.052338	-0.007019	0.028992	-0.006714	0.006866	0.005341	-0.010681	-0.13428	-1.8063	0.032654	0.014191	0.04715	0.014954	-0.2092	0.62347	-0.020905	-0.016479	0.06546	0.50171	0.05661	-0.000305	-0.017242
41.969	0	0.002136	-0.045166	-0.017548	-0.010681	0.016022	-0.003052	0.005951	0.005493	0.025635	0.097656	-0.006866	0.02655	-0.013733	0.001984	0.000763	-0.045471	-0.080109	-0.98999	-0.077667	0.10956	0.023956	-0.3093	0.088959	1.0788	-0.027466	-0.061493	0.041962	0.88013	-0.2034	-0.001068	-0.010834
41.97	0.00473	0.013275	-0.028229	0.008087	-0.008392	-0.006561	0.005646	-0.000458	-0.003815	-0.005035	0.038147	-0.00946	0.023346	-0.00473	0.018616	0.004425	-0.063629	-0.019073	0.59479	-0.20081	0.062561	0.035553	-0.48859	0.10468	1.2398	-0.022278	-0.070038	-0.001831	0.61981	-0.57236	-0.001373	-0.012512
41.971	0.006866	0.032043	0.088501	0.001984	0.00061	0.012054	-0.004425	0.005188	0.001678	-0.01297	0.079346	-0.013123	-0.015106	-0.014648	0.017853	0.003204	-0.012817	0.005646	2.1713	-0.22278	-0.007629	0.028076	-0.38025	0.072784	0.56335	-0.023651	-0.041199	-0.41946	0.50369	-0.32181	-0.00061	-0.01236
41.972	-0.001984	0.014954	0.11307	-0.005188	-0.015564	0.0177	0.006866	0.007629	0.001221	-0.007019	0.13733	-0.011749	-0.007782	-0.021667	0.011749	0.015564	0.033264	-0.13077	1.187	-0.054321	-0.14572	0.020905	0.06012	-0.19501	-0.4631	-0.015564	0.070038	0.22354	-0.18967	0.19486	-0.004425	-0.010376
41.973	0.005341	-0.016479	0.014801	-0.011139	-0.013275	0.02594	0.016174	0.001984	-0.007782	-0.014343	0.084076	-0.012054	-0.003967	-0.032654	0.007629	0.007935	0.01358	-0.12604	0.44006	0.11337	-0.24384	0.10437	0.33463	0.015869	-0.52231	-0.02243	0.20386	0.35355	-0.28564	0.61569	-0.000458	-0.005035
41.974	0.001221	-0.055237	0.10147	-0.000458	-0.006409	0.03891	0.015869	0.008545	-0.00412	-0.009918	-0.03952	-0.012207	-0.015411	-0.029602	0.015564	0.013428	0.028687	-0.093689	-0.31982	0.21454	-0.11826	0.007782	0.21637	-0.049591	-0.21316	-0.017242	0.19409	0.13458	0.53635	1.0107	0.001984	-0.002747
41.975	-0.001678	-0.034332	0.050964	0.006256	-0.006409	0.024109	0.021515	0.002594	0.004578	-0.004578	-0.097046	-0.007782	-0.029144	-0.019836	0.052032	0.031281	0.010376	0.022278	0.14404	0.080566	0.36957	-0.067596	-0.19409	-0.079041	0.014343	-0.016479	0.094147	0.04425	0.69794	1.1775	-0.001831	0.002899
41.976	0.008087	-0.019836	0.041504	0.000763	-0.003815	0.010223	0.004578	0.003204	-0.007477	-0.01297	-0.09964	-0.016785	-0.019073	-0.033722	0.027466	0.007172	0.021515	-0.010986	-0.10056	-0.027161	0.44647	-0.13138	-0.27985	0.13611	0.04776	-0.019226	-0.049286	0.055847	-0.24353	0.79102	-0.000916	-0.001831
41.977	0.006561	-0.005493	-0.003662	-0.005493	-0.009613	0.016479	0.027924	0.00412	-0.012512	-0.014343	-0.046997	-0.011902	-0.004425	-0.022888	0.016174	0.008087	0.045624	-0.031738	-0.33249	-0.025024	0.075989	-0.13275	-0.076447	1.0944	0.075531	-0.017242	-0.049896	0.010529	-1.8233	-0.03418	-0.002136	-0.000458
41.978	0.006409	-0.001831	-0.019836	-0.004578	-0.018005	0.018616	0.023041	0.004883	-0.013123	-0.016632	-0.021515	-0.015259	0.003357	-0.022736	0.035095	0.019073	0.069427	0.042572	0.005798	0.052643	0.011902	-0.13489	-0.041199	1.0942	0.06897	-0.005951	0.006866	-0.007782	-1.7294	-0.23621	-0.002289	-0.001984
